<svg width="25" height="25" viewBox="0 0 25 25" fill="none" xmlns="http://www.w3.org/2000/svg">
<g clip-path="url(#clip0_21719_28677)">
<path d="M4.91051 0.926563C4.23082 1.05781 3.67301 1.63438 3.54644 2.32813C3.51363 2.50625 3.50426 5.94219 3.50894 12.6641C3.52301 22.2031 3.52769 22.7516 3.60738 22.9531C3.79488 23.4313 4.22613 23.8531 4.69488 24.0172C4.91519 24.0969 5.36988 24.1016 12.523 24.1016H20.1168L20.398 23.9891C20.5902 23.9094 20.7589 23.7922 20.9371 23.6141C21.2324 23.3188 21.3824 23.0469 21.4527 22.6766C21.5183 22.3297 21.5183 2.67031 21.4527 2.32344C21.3824 1.95312 21.2324 1.68125 20.9371 1.38594C20.7589 1.20781 20.5902 1.09063 20.398 1.01094L20.1168 0.898439L12.6168 0.893751C8.49176 0.889063 5.02301 0.903126 4.91051 0.926563ZM20.2527 1.55C20.4871 1.66719 20.7074 1.8875 20.8246 2.12188C20.9043 2.29062 20.9136 2.43125 20.9277 3.81406L20.9418 5.32813H12.4996H4.05738L4.07144 3.81406C4.08551 2.44063 4.09488 2.29063 4.17457 2.12656C4.29644 1.87813 4.51207 1.67656 4.78863 1.55L5.02301 1.4375L12.5464 1.45156C19.8824 1.46094 20.0746 1.46094 20.2527 1.55ZM20.9277 14.2672C20.9136 22.4984 20.9136 22.7 20.8246 22.8781C20.7074 23.1125 20.4871 23.3328 20.2527 23.45C20.0746 23.5391 19.8918 23.5391 12.4996 23.5391H4.92926L4.73707 23.4359C4.48863 23.3047 4.28707 23.1031 4.17457 22.8734C4.09019 22.7 4.08551 22.4375 4.07144 14.2672L4.06207 5.84375H12.4996H20.9371L20.9277 14.2672Z" fill="#0F0F0F" stroke="#0F0F0F" style="fill:#0F0F0F;fill:color(display-p3 0.0588 0.0588 0.0588);fill-opacity:1;stroke:#0F0F0F;stroke:color(display-p3 0.0588 0.0588 0.0588);stroke-opacity:1;" stroke-width="0.3"/>
<path d="M5.58457 2.65115C5.12988 2.86208 4.96113 3.33552 5.20019 3.7574C5.47207 4.24021 6.08613 4.32927 6.47519 3.9449C6.86894 3.54646 6.76582 2.91833 6.26425 2.66521C6.01582 2.53865 5.833 2.53396 5.58457 2.65115ZM6.08613 3.20427C6.18925 3.29802 6.19394 3.44333 6.09082 3.55583C5.9455 3.7199 5.65488 3.60271 5.65488 3.37771C5.65488 3.15271 5.91269 3.04958 6.08613 3.20427Z" fill="#0F0F0F" style="fill:#0F0F0F;fill:color(display-p3 0.0588 0.0588 0.0588);fill-opacity:1;"/>
<path d="M7.78323 2.65202C7.06136 2.98015 7.1973 4.03015 7.98011 4.18015C8.35511 4.25046 8.77698 3.98327 8.88948 3.60827C9.00198 3.23327 8.82855 2.8489 8.46761 2.66608C8.21448 2.53952 8.03636 2.53483 7.78323 2.65202ZM8.29886 3.20046C8.44886 3.34577 8.33167 3.64108 8.12542 3.64108C7.99886 3.64108 7.85823 3.50983 7.85823 3.39265C7.85823 3.16765 8.14417 3.04577 8.29886 3.20046Z" fill="#0F0F0F" style="fill:#0F0F0F;fill:color(display-p3 0.0588 0.0588 0.0588);fill-opacity:1;"/>
<path d="M9.96905 2.66521C9.46749 2.91833 9.36436 3.54646 9.75811 3.94489C10.2222 4.40896 11.0003 4.16052 11.1222 3.50896C11.1925 3.15271 11.005 2.81052 10.6487 2.65114C10.4003 2.53396 10.2175 2.53864 9.96905 2.66521ZM10.5034 3.19958C10.6534 3.34489 10.5362 3.64021 10.33 3.64021C10.2034 3.64021 10.0628 3.50896 10.0628 3.39177C10.0628 3.16677 10.3487 3.04489 10.5034 3.19958Z" fill="#0F0F0F" style="fill:#0F0F0F;fill:color(display-p3 0.0588 0.0588 0.0588);fill-opacity:1;"/>
<path d="M15.0164 3.20937C14.9133 3.32188 14.918 3.46719 15.0211 3.56094C15.1008 3.63125 15.3352 3.64062 17.4305 3.64062C19.6196 3.64062 19.7555 3.63594 19.8258 3.55625C19.9289 3.44375 19.9243 3.29844 19.8211 3.20469C19.7414 3.13437 19.5071 3.125 17.4118 3.125C15.2227 3.125 15.0868 3.12969 15.0164 3.20937Z" fill="#0F0F0F" stroke="#0F0F0F" style="fill:#0F0F0F;fill:color(display-p3 0.0588 0.0588 0.0588);fill-opacity:1;stroke:#0F0F0F;stroke:color(display-p3 0.0588 0.0588 0.0588);stroke-opacity:1;" stroke-width="0.3"/>
<path d="M5.39859 7.26875C5.33297 7.3625 5.32828 7.76094 5.33766 10.5969C5.35172 13.7234 5.35641 13.8219 5.44078 13.8875C5.52047 13.9437 6.08766 13.9531 9.06422 13.9531C12.533 13.9531 12.5939 13.9531 12.6877 13.8594C12.7814 13.7656 12.7814 13.7047 12.7814 10.5641C12.7814 7.74219 12.772 7.35313 12.7064 7.25938L12.6361 7.15625H9.05484H5.46891L5.39859 7.26875ZM12.2189 10.5547V13.3906H9.05484H5.89078V10.5547V7.71875H9.05484H12.2189V10.5547Z" fill="#0F0F0F" style="fill:#0F0F0F;fill:color(display-p3 0.0588 0.0588 0.0588);fill-opacity:1;"/>
<path d="M14.5011 7.24031C14.3933 7.3575 14.4027 7.49813 14.5199 7.60594C14.6136 7.69031 14.7355 7.695 16.9761 7.70906C18.4761 7.71844 19.3761 7.70438 19.4558 7.67156C19.6386 7.60594 19.7042 7.42781 19.6058 7.27313L19.5308 7.15594H17.0511C14.712 7.15594 14.5714 7.16063 14.5011 7.24031Z" fill="#0F0F0F" stroke="#0F0F0F" style="fill:#0F0F0F;fill:color(display-p3 0.0588 0.0588 0.0588);fill-opacity:1;stroke:#0F0F0F;stroke:color(display-p3 0.0588 0.0588 0.0588);stroke-opacity:1;" stroke-width="0.3"/>
<path d="M14.5156 9.3125C14.4641 9.36406 14.4219 9.44844 14.4219 9.5C14.4219 9.55156 14.4641 9.63594 14.5156 9.6875C14.6047 9.77656 14.6703 9.78125 17.0469 9.78125C19.4234 9.78125 19.4891 9.77656 19.5781 9.6875C19.7 9.56562 19.6953 9.47187 19.5547 9.33594L19.4422 9.21875H17.0234C14.6703 9.21875 14.6047 9.22344 14.5156 9.3125Z" fill="#0F0F0F" stroke="#0F0F0F" style="fill:#0F0F0F;fill:color(display-p3 0.0588 0.0588 0.0588);fill-opacity:1;stroke:#0F0F0F;stroke:color(display-p3 0.0588 0.0588 0.0588);stroke-opacity:1;" stroke-width="0.3"/>
<path d="M14.5008 11.4124C14.3977 11.5249 14.4024 11.6702 14.5055 11.7687C14.5852 11.839 14.8149 11.8437 17.0743 11.8343L19.5493 11.8202L19.6196 11.6983C19.6805 11.5858 19.6805 11.5624 19.6102 11.4499L19.5305 11.328H17.0508C14.7118 11.328 14.5711 11.3327 14.5008 11.4124Z" fill="#0F0F0F" stroke="#0F0F0F" style="fill:#0F0F0F;fill:color(display-p3 0.0588 0.0588 0.0588);fill-opacity:1;stroke:#0F0F0F;stroke:color(display-p3 0.0588 0.0588 0.0588);stroke-opacity:1;" stroke-width="0.3"/>
<path d="M14.5156 13.4844C14.4641 13.5359 14.4219 13.6203 14.4219 13.6719C14.4219 13.7234 14.4641 13.8078 14.5156 13.8594C14.6047 13.9484 14.6703 13.9531 17.0188 13.9531C18.3453 13.9531 19.4656 13.9391 19.5078 13.925C19.6813 13.8547 19.6859 13.5406 19.5125 13.4281C19.4844 13.4094 18.3688 13.3906 17.0375 13.3906C14.6703 13.3906 14.6047 13.3953 14.5156 13.4844Z" fill="#0F0F0F" stroke="#0F0F0F" style="fill:#0F0F0F;fill:color(display-p3 0.0588 0.0588 0.0588);fill-opacity:1;stroke:#0F0F0F;stroke:color(display-p3 0.0588 0.0588 0.0588);stroke-opacity:1;" stroke-width="0.3"/>
<path d="M5.38795 15.6219C5.31764 15.7344 5.31764 15.7578 5.37858 15.8703L5.44889 15.9922H12.4989H19.5489L19.6192 15.8703C19.6801 15.7578 19.6801 15.7344 19.6098 15.6219L19.5301 15.5H12.4989H5.46764L5.38795 15.6219Z" fill="#0F0F0F" stroke="#0F0F0F" style="fill:#0F0F0F;fill:color(display-p3 0.0588 0.0588 0.0588);fill-opacity:1;stroke:#0F0F0F;stroke:color(display-p3 0.0588 0.0588 0.0588);stroke-opacity:1;" stroke-width="0.3"/>
<path d="M5.4213 17.6562C5.30411 17.7734 5.30411 17.8484 5.42599 18.0031L5.51974 18.125H12.4994H19.4791L19.5729 18.0031C19.6947 17.8484 19.6947 17.7734 19.5775 17.6562C19.4838 17.5625 19.4229 17.5625 12.4994 17.5625C5.57599 17.5625 5.51505 17.5625 5.4213 17.6562Z" fill="#0F0F0F" stroke="#0F0F0F" style="fill:#0F0F0F;fill:color(display-p3 0.0588 0.0588 0.0588);fill-opacity:1;stroke:#0F0F0F;stroke:color(display-p3 0.0588 0.0588 0.0588);stroke-opacity:1;" stroke-width="0.3"/>
<path d="M5.38795 19.7938C5.31764 19.9062 5.31764 19.9297 5.37858 20.0422L5.44889 20.1641H12.4989H19.5489L19.6192 20.0422C19.6801 19.9297 19.6801 19.9062 19.6098 19.7938L19.5301 19.6719H12.4989H5.46764L5.38795 19.7938Z" fill="#0F0F0F" stroke="#0F0F0F" style="fill:#0F0F0F;fill:color(display-p3 0.0588 0.0588 0.0588);fill-opacity:1;stroke:#0F0F0F;stroke:color(display-p3 0.0588 0.0588 0.0588);stroke-opacity:1;" stroke-width="0.3"/>
<path d="M5.42099 21.8281C5.29911 21.95 5.3038 22.0437 5.44442 22.1797L5.55692 22.2969H9.85067H14.1444L14.2616 22.1797C14.3882 22.0531 14.3835 21.9031 14.2429 21.7906C14.1866 21.7484 13.2304 21.7344 9.8413 21.7344C5.57567 21.7344 5.51474 21.7344 5.42099 21.8281Z" fill="#0F0F0F" stroke="#0F0F0F" style="fill:#0F0F0F;fill:color(display-p3 0.0588 0.0588 0.0588);fill-opacity:1;stroke:#0F0F0F;stroke:color(display-p3 0.0588 0.0588 0.0588);stroke-opacity:1;" stroke-width="0.3"/>
</g>
<defs>
<clipPath id="clip0_21719_28677">
<rect width="24" height="24" fill="white" style="fill:white;fill-opacity:1;" transform="translate(0.5 0.5)"/>
</clipPath>
</defs>
</svg>
