<svg width="24" height="24" viewBox="0 0 24 24" fill="none" xmlns="http://www.w3.org/2000/svg">
<path d="M7.01496 7.10976L14.905 3.75726C14.9806 3.72513 15.0618 3.70847 15.144 3.70826C15.2645 3.70817 15.3823 3.74366 15.4828 3.81028C15.5832 3.8769 15.6617 3.97169 15.7085 4.08276L16.6185 6.22876H12.566C12.4855 6.22856 12.4057 6.24427 12.3313 6.27498C12.2569 6.30569 12.1893 6.3508 12.1324 6.40771C12.0755 6.46463 12.0304 6.53223 11.9997 6.60663C11.969 6.68103 11.9533 6.76077 11.9535 6.84126V19.7098C11.954 19.8536 12.0054 19.9926 12.0985 20.1023C12.0132 20.0765 11.9347 20.0325 11.8683 19.9731C11.802 19.9138 11.7495 19.8406 11.7145 19.7588L6.69096 7.91426C6.65931 7.84017 6.64258 7.76057 6.64174 7.68001C6.64089 7.59945 6.65595 7.51952 6.68605 7.44479C6.71614 7.37005 6.76069 7.302 6.81713 7.24451C6.87357 7.18702 6.9408 7.14123 7.01496 7.10976ZM7.01496 7.10976C6.94081 7.14103 6.87406 7.18663 6.81758 7.24396C6.7611 7.30129 6.71651 7.36922 6.68636 7.44383C6.65621 7.51845 6.64109 7.59828 6.64188 7.67875C6.64267 7.75923 6.65935 7.83875 6.69096 7.91276L11.714 19.7593C11.7712 19.8922 11.8741 20.0004 12.004 20.0643C11.9155 20.0723 11.8263 20.0607 11.7428 20.0305C11.6592 20.0002 11.5833 19.952 11.5205 19.8893L2.42996 10.7903C2.37292 10.7334 2.32766 10.6659 2.29678 10.5916C2.2659 10.5172 2.25 10.4375 2.25 10.357C2.25 10.2765 2.2659 10.1968 2.29678 10.1224C2.32766 10.0481 2.37292 9.98057 2.42996 9.92376L8.49046 3.85726C8.54722 3.80024 8.6147 3.75503 8.68901 3.72422C8.76333 3.69341 8.84301 3.67762 8.92346 3.67776L8.92396 3.67676C9.00436 3.67675 9.08397 3.69265 9.15819 3.72355C9.23242 3.75444 9.2998 3.79971 9.35646 3.85676L10.941 5.44226L7.01496 7.10976ZM13 9.24976H20.5M13 10.7498H20.5M13 12.2498H20.5M13 13.7498H20.5M13 15.2498H20.5M13 16.7498H20.5M13 18.2498H20.5M12.4785 6.22876H21.225C21.5149 6.22876 21.75 6.46381 21.75 6.75376V19.7968C21.75 20.0867 21.5149 20.3218 21.225 20.3218H12.4785C12.1885 20.3218 11.9535 20.0867 11.9535 19.7968V6.75376C11.9535 6.46381 12.1885 6.22876 12.4785 6.22876Z" stroke="#0F0F0F" style="stroke:#0F0F0F;stroke:color(display-p3 0.0588 0.0588 0.0588);stroke-opacity:1;" stroke-linecap="round" stroke-linejoin="round"/>
</svg>
