<svg width="24" height="24" viewBox="0 0 24 24" fill="none" xmlns="http://www.w3.org/2000/svg">
<path d="M5.14369 10.2854C6.56184 10.2854 7.71512 9.13215 7.71512 7.71401C7.71512 6.29586 6.56184 5.14258 5.14369 5.14258C3.72555 5.14258 2.57227 6.29586 2.57227 7.71401C2.57227 9.13215 3.72555 10.2854 5.14369 10.2854ZM5.14369 5.99972C6.08912 5.99972 6.85798 6.76858 6.85798 7.71401C6.85798 8.65944 6.08912 9.42829 5.14369 9.42829C4.19827 9.42829 3.42941 8.65944 3.42941 7.71401C3.42941 6.76858 4.19827 5.99972 5.14369 5.99972Z" fill="#0F0F0F" style="fill:#0F0F0F;fill:color(display-p3 0.0588 0.0588 0.0588);fill-opacity:1;"/>
<path d="M18.8566 10.2854C20.2747 10.2854 21.428 9.13215 21.428 7.71401C21.428 6.29586 20.2747 5.14258 18.8566 5.14258C17.4384 5.14258 16.2852 6.29586 16.2852 7.71401C16.2852 9.13215 17.4384 10.2854 18.8566 10.2854ZM18.8566 5.99972C19.802 5.99972 20.5709 6.76858 20.5709 7.71401C20.5709 8.65944 19.802 9.42829 18.8566 9.42829C17.9112 9.42829 17.1423 8.65944 17.1423 7.71401C17.1423 6.76858 17.9112 5.99972 18.8566 5.99972Z" fill="#0F0F0F" style="fill:#0F0F0F;fill:color(display-p3 0.0588 0.0588 0.0588);fill-opacity:1;"/>
<path d="M23.1429 11.1426V16.714C23.1429 17.4229 22.566 17.9997 21.8571 17.9997V13.2854C21.8571 12.1039 20.8959 11.1426 19.7143 11.1426H17.5714C17.3349 11.1426 17.1429 11.3346 17.1429 11.5711V13.2854V13.714V14.1426H13.7143C13.4777 14.1426 13.2857 14.3346 13.2857 14.5711V15.8569H10.7143V14.5711C10.7143 14.3346 10.5223 14.1426 10.2857 14.1426H6.85714V13.714V13.2854V11.5711C6.85714 11.3346 6.66514 11.1426 6.42857 11.1426H4.28571C3.10414 11.1426 2.14286 12.1039 2.14286 13.2854V17.9997C1.434 17.9997 0.857143 17.4229 0.857143 16.714V11.1426H0V16.714C0 17.5904 0.530143 18.3434 1.28571 18.6751V23.9997H2.14286V18.8569H2.57143H3H6.42857V23.5711C6.42857 23.8077 6.62057 23.9997 6.85714 23.9997H8.14286H8.57143H9V23.5711V17.1426V16.714H10.2857H13.7143H15V17.1426V23.5711V23.9997H15.4286H15.8571H17.1429C17.3794 23.9997 17.5714 23.8077 17.5714 23.5711V18.8569H21H21.4286H21.8571V23.9997H22.7143V18.6751C23.4699 18.3434 24 17.5904 24 16.714V11.1426H23.1429ZM8.57143 15.8569H7.71429H5.14286V13.2854H4.28571V16.2854C4.28571 16.522 4.47771 16.714 4.71429 16.714H7.71429C7.95043 16.714 8.14286 16.9064 8.14286 17.1426V23.1426H7.28571V18.4283C7.28571 18.1917 7.09371 17.9997 6.85714 17.9997H3V13.2854C3 12.5766 3.57686 11.9997 4.28571 11.9997H6V13.2854V13.714V14.5711C6 14.8077 6.192 14.9997 6.42857 14.9997H9.85714V15.8569H8.57143ZM17.1429 17.9997C16.9063 17.9997 16.7143 18.1917 16.7143 18.4283V23.1426H15.8571V17.1426C15.8571 16.9064 16.0496 16.714 16.2857 16.714H19.2857C19.5223 16.714 19.7143 16.522 19.7143 16.2854V13.2854H18.8571V15.8569H16.2857H15.4286H14.1429V14.9997H17.5714C17.808 14.9997 18 14.8077 18 14.5711V13.714V13.2854V11.9997H19.7143C20.4231 11.9997 21 12.5766 21 13.2854V17.9997H17.1429Z" fill="#0F0F0F" style="fill:#0F0F0F;fill:color(display-p3 0.0588 0.0588 0.0588);fill-opacity:1;"/>
<path d="M8.14314 4.28571V5.57143C8.14314 5.75614 8.26099 5.91943 8.43628 5.97814C8.48085 5.99271 8.52671 6 8.57171 6C8.70414 6 8.83185 5.93829 8.91456 5.82857L10.0717 4.28571H13.286C13.9949 4.28571 14.5717 3.70886 14.5717 3V1.28571C14.5717 0.576857 13.9949 0 13.286 0H8.14314C7.43428 0 6.85742 0.576857 6.85742 1.28571V3C6.85742 3.70886 7.43428 4.28571 8.14314 4.28571ZM7.71456 1.28571C7.71456 1.04957 7.90699 0.857143 8.14314 0.857143H13.286C13.5221 0.857143 13.7146 1.04957 13.7146 1.28571V3C13.7146 3.23614 13.5221 3.42857 13.286 3.42857H9.85742C9.72242 3.42857 9.59557 3.492 9.51456 3.6L9.00028 4.28571V3.85714C9.00028 3.62057 8.80828 3.42857 8.57171 3.42857H8.14314C7.90699 3.42857 7.71456 3.23614 7.71456 3V1.28571Z" fill="#0F0F0F" style="fill:#0F0F0F;fill:color(display-p3 0.0588 0.0588 0.0588);fill-opacity:1;"/>
<path d="M12.858 1.71387H8.57227V2.57101H12.858V1.71387Z" fill="#0F0F0F" style="fill:#0F0F0F;fill:color(display-p3 0.0588 0.0588 0.0588);fill-opacity:1;"/>
<path d="M14.1437 10.7139H11.5723V11.571H14.1437V10.7139Z" fill="#0F0F0F" style="fill:#0F0F0F;fill:color(display-p3 0.0588 0.0588 0.0588);fill-opacity:1;"/>
<path d="M11.1431 9C10.4343 9 9.85742 9.57686 9.85742 10.2857V12C9.85742 12.7089 10.4343 13.2857 11.1431 13.2857H14.5717C15.2806 13.2857 15.8574 12.7089 15.8574 12V11.7013L16.6426 10.5236C16.7304 10.392 16.7386 10.2231 16.664 10.0839C16.5894 9.94414 16.4441 9.85714 16.286 9.85714H15.7841C15.6071 9.35829 15.1306 9 14.5717 9H11.1431ZM15.0003 10.2857C15.0003 10.5223 15.1923 10.7143 15.4288 10.7143H15.485L15.0723 11.3336C15.0256 11.4039 15.0003 11.487 15.0003 11.5714V12C15.0003 12.2361 14.8078 12.4286 14.5717 12.4286H11.1431C10.907 12.4286 10.7146 12.2361 10.7146 12V10.2857C10.7146 10.0496 10.907 9.85714 11.1431 9.85714H14.5717C14.8078 9.85714 15.0003 10.0496 15.0003 10.2857Z" fill="#0F0F0F" style="fill:#0F0F0F;fill:color(display-p3 0.0588 0.0588 0.0588);fill-opacity:1;"/>
<path d="M10.7146 6.85742H9.85742V7.71456H10.7146V6.85742Z" fill="#0F0F0F" style="fill:#0F0F0F;fill:color(display-p3 0.0588 0.0588 0.0588);fill-opacity:1;"/>
<path d="M12.4294 6.85742H11.5723V7.71456H12.4294V6.85742Z" fill="#0F0F0F" style="fill:#0F0F0F;fill:color(display-p3 0.0588 0.0588 0.0588);fill-opacity:1;"/>
<path d="M14.1423 6.85742H13.2852V7.71456H14.1423V6.85742Z" fill="#0F0F0F" style="fill:#0F0F0F;fill:color(display-p3 0.0588 0.0588 0.0588);fill-opacity:1;"/>
</svg>
