<svg width="20" height="21" viewBox="0 0 20 21" fill="none" xmlns="http://www.w3.org/2000/svg">
<path d="M10.0007 3.83203C10.8847 3.83203 11.7326 4.18322 12.3577 4.80834C12.9828 5.43346 13.334 6.28131 13.334 7.16536C13.334 8.04942 12.9828 8.89727 12.3577 9.52239C11.7326 10.1475 10.8847 10.4987 10.0007 10.4987C9.1166 10.4987 8.26875 10.1475 7.64363 9.52239C7.01851 8.89727 6.66732 8.04942 6.66732 7.16536C6.66732 6.28131 7.01851 5.43346 7.64363 4.80834C8.26875 4.18322 9.1166 3.83203 10.0007 3.83203ZM10.0007 5.4987C9.55862 5.4987 9.1347 5.67429 8.82214 5.98685C8.50958 6.29941 8.33398 6.72334 8.33398 7.16536C8.33398 7.60739 8.50958 8.03131 8.82214 8.34387C9.1347 8.65644 9.55862 8.83203 10.0007 8.83203C10.4427 8.83203 10.8666 8.65644 11.1792 8.34387C11.4917 8.03131 11.6673 7.60739 11.6673 7.16536C11.6673 6.72334 11.4917 6.29941 11.1792 5.98685C10.8666 5.67429 10.4427 5.4987 10.0007 5.4987ZM10.0007 11.332C12.2256 11.332 16.6673 12.4404 16.6673 14.6654V17.1654H3.33398V14.6654C3.33398 12.4404 7.77565 11.332 10.0007 11.332ZM10.0007 12.9154C7.52565 12.9154 4.91732 14.132 4.91732 14.6654V15.582H15.084V14.6654C15.084 14.132 12.4756 12.9154 10.0007 12.9154Z" fill="#0F0F0F" style="fill:#0F0F0F;fill:color(display-p3 0.0588 0.0588 0.0588);fill-opacity:1;"/>
</svg>
