<svg width="496" height="122" viewBox="0 0 496 122" fill="none" xmlns="http://www.w3.org/2000/svg">
<g filter="url(#filter0_f_1_564)">
<rect x="45" y="35" width="406" height="49" fill="#2B26C0"/>
</g>
<path d="M65.8853 67.5V52.9867H60.1784V50.2809H74.7901V52.9867H69.0831V67.5H65.8853ZM91.3425 50.2809H94.5403V67.5H91.3425V50.2809ZM82.4377 67.5H79.2399V50.2809H82.4377V67.5ZM91.5884 60.1204H82.1671V57.3899H91.5884V60.1204ZM104.156 57.4391H112.716V60.0712H104.156V57.4391ZM104.402 64.8187H114.119V67.5H101.204V50.2809H113.774V52.9621H104.402V64.8187Z" fill="#D9D9D9"/>
<rect width="148.175" height="29.3243" transform="translate(123.413 44.8379)" fill="#D9D9D9"/>
<path d="M129.403 67.5V50.2809H136.488C138.013 50.2809 139.316 50.5269 140.399 51.0188C141.498 51.5108 142.342 52.216 142.932 53.1343C143.523 54.0527 143.818 55.1432 143.818 56.406C143.818 57.6687 143.523 58.7592 142.932 59.6776C142.342 60.5959 141.498 61.3011 140.399 61.7931C139.316 62.2851 138.013 62.5311 136.488 62.5311H131.174L132.601 61.0305V67.5H129.403ZM132.601 61.3749L131.174 59.8252H136.34C137.75 59.8252 138.808 59.53 139.513 58.9396C140.235 58.3329 140.596 57.4883 140.596 56.406C140.596 55.3072 140.235 54.4627 139.513 53.8723C138.808 53.2819 137.75 52.9867 136.34 52.9867H131.174L132.601 51.4124V61.3749ZM149.061 67.5V50.2809H156.146C157.671 50.2809 158.975 50.5269 160.057 51.0188C161.156 51.5108 162 52.216 162.591 53.1343C163.181 54.0527 163.476 55.1432 163.476 56.406C163.476 57.6687 163.181 58.7592 162.591 59.6776C162 60.5796 161.156 61.2765 160.057 61.7685C158.975 62.2441 157.671 62.4819 156.146 62.4819H150.832L152.259 61.0305V67.5H149.061ZM160.328 67.5L155.974 61.2519H159.393L163.771 67.5H160.328ZM152.259 61.3749L150.832 59.8498H155.998C157.409 59.8498 158.466 59.5464 159.171 58.9396C159.893 58.3329 160.254 57.4883 160.254 56.406C160.254 55.3072 159.893 54.4627 159.171 53.8723C158.466 53.2819 157.409 52.9867 155.998 52.9867H150.832L152.259 51.4124V61.3749ZM177.172 67.746C175.828 67.746 174.589 67.5246 173.458 67.0818C172.326 66.639 171.342 66.0241 170.506 65.2369C169.67 64.4334 169.022 63.4986 168.563 62.4327C168.104 61.3503 167.874 60.1696 167.874 58.8904C167.874 57.6113 168.104 56.4388 168.563 55.3728C169.022 54.2905 169.67 53.3557 170.506 52.5686C171.342 51.765 172.326 51.1418 173.458 50.6991C174.589 50.2563 175.819 50.0349 177.148 50.0349C178.492 50.0349 179.722 50.2563 180.837 50.6991C181.969 51.1418 182.953 51.765 183.789 52.5686C184.626 53.3557 185.273 54.2905 185.733 55.3728C186.192 56.4388 186.421 57.6113 186.421 58.8904C186.421 60.1696 186.192 61.3503 185.733 62.4327C185.273 63.515 184.626 64.4498 183.789 65.2369C182.953 66.0241 181.969 66.639 180.837 67.0818C179.722 67.5246 178.501 67.746 177.172 67.746ZM177.148 64.9417C178.017 64.9417 178.82 64.7941 179.558 64.499C180.296 64.2038 180.936 63.7856 181.477 63.2444C182.018 62.6868 182.436 62.0473 182.732 61.3257C183.043 60.5878 183.199 59.776 183.199 58.8904C183.199 58.0049 183.043 57.2013 182.732 56.4798C182.436 55.7418 182.018 55.1022 181.477 54.5611C180.936 54.0035 180.296 53.5771 179.558 53.2819C178.82 52.9867 178.017 52.8391 177.148 52.8391C176.279 52.8391 175.475 52.9867 174.737 53.2819C174.015 53.5771 173.376 54.0035 172.818 54.5611C172.277 55.1022 171.851 55.7418 171.539 56.4798C171.244 57.2013 171.096 58.0049 171.096 58.8904C171.096 59.7596 171.244 60.5632 171.539 61.3011C171.851 62.0391 172.277 62.6868 172.818 63.2444C173.359 63.7856 173.999 64.2038 174.737 64.499C175.475 64.7941 176.279 64.9417 177.148 64.9417ZM191.861 67.5V50.2809H199.388C201.258 50.2809 202.898 50.6417 204.308 51.3632C205.718 52.0848 206.817 53.0851 207.604 54.3643C208.391 55.6434 208.785 57.1521 208.785 58.8904C208.785 60.6123 208.391 62.1211 207.604 63.4166C206.817 64.6957 205.718 65.6961 204.308 66.4177C202.898 67.1392 201.258 67.5 199.388 67.5H191.861ZM195.059 64.7941H199.241C200.536 64.7941 201.651 64.5481 202.586 64.0562C203.537 63.5642 204.267 62.8754 204.775 61.9899C205.3 61.1043 205.562 60.0712 205.562 58.8904C205.562 57.6933 205.3 56.6602 204.775 55.791C204.267 54.9054 203.537 54.2167 202.586 53.7247C201.651 53.2327 200.536 52.9867 199.241 52.9867H195.059V64.7941ZM221.638 67.746C219.276 67.746 217.423 67.0818 216.079 65.7535C214.75 64.4252 214.086 62.5065 214.086 59.9974V50.2809H217.284V59.8744C217.284 61.6455 217.661 62.9328 218.415 63.7364C219.186 64.54 220.269 64.9417 221.662 64.9417C223.056 64.9417 224.131 64.54 224.885 63.7364C225.639 62.9328 226.016 61.6455 226.016 59.8744V50.2809H229.165V59.9974C229.165 62.5065 228.493 64.4252 227.148 65.7535C225.82 67.0818 223.983 67.746 221.638 67.746ZM243.663 67.746C242.352 67.746 241.13 67.5328 239.998 67.1064C238.883 66.6636 237.907 66.0487 237.071 65.2615C236.251 64.458 235.611 63.515 235.152 62.4327C234.693 61.3503 234.464 60.1696 234.464 58.8904C234.464 57.6113 234.693 56.4306 235.152 55.3482C235.611 54.2659 236.259 53.3311 237.096 52.544C237.932 51.7404 238.908 51.1254 240.023 50.6991C241.138 50.2563 242.36 50.0349 243.688 50.0349C245.098 50.0349 246.386 50.2809 247.55 50.7728C248.714 51.2484 249.698 51.9618 250.502 52.9129L248.436 54.8562C247.812 54.1839 247.115 53.6837 246.345 53.3557C245.574 53.0113 244.738 52.8391 243.836 52.8391C242.934 52.8391 242.106 52.9867 241.351 53.2819C240.613 53.5771 239.965 53.9953 239.408 54.5365C238.867 55.0776 238.44 55.7172 238.129 56.4552C237.834 57.1931 237.686 58.0049 237.686 58.8904C237.686 59.776 237.834 60.5878 238.129 61.3257C238.44 62.0637 238.867 62.7032 239.408 63.2444C239.965 63.7856 240.613 64.2038 241.351 64.499C242.106 64.7941 242.934 64.9417 243.836 64.9417C244.738 64.9417 245.574 64.7777 246.345 64.4498C247.115 64.1054 247.812 63.5888 248.436 62.9L250.502 64.8679C249.698 65.8027 248.714 66.516 247.55 67.008C246.386 67.5 245.09 67.746 243.663 67.746ZM258.917 67.5V52.9867H253.21V50.2809H267.821V52.9867H262.115V67.5H258.917Z" fill="#2A2A2A"/>
<path d="M281.722 67.5V50.2809H288.807C290.332 50.2809 291.636 50.5269 292.718 51.0188C293.817 51.5108 294.661 52.216 295.252 53.1343C295.842 54.0527 296.137 55.1432 296.137 56.406C296.137 57.6687 295.842 58.7592 295.252 59.6776C294.661 60.5959 293.817 61.3011 292.718 61.7931C291.636 62.2851 290.332 62.5311 288.807 62.5311H283.493L284.92 61.0305V67.5H281.722ZM284.92 61.3749L283.493 59.8252H288.659C290.069 59.8252 291.127 59.53 291.832 58.9396C292.554 58.3329 292.915 57.4883 292.915 56.406C292.915 55.3072 292.554 54.4627 291.832 53.8723C291.127 53.2819 290.069 52.9867 288.659 52.9867H283.493L284.92 51.4124V61.3749ZM301.38 67.5V50.2809H304.578V64.7941H313.581V67.5H301.38ZM315.745 67.5L323.493 50.2809H326.642L334.415 67.5H331.07L324.403 51.9782H325.683L319.041 67.5H315.745ZM319.311 63.515L320.172 61.0059H329.471L330.332 63.515H319.311ZM341.283 67.5V52.9867H335.576V50.2809H350.188V52.9867H344.481V67.5H341.283ZM357.565 58.2017H366.15V60.9075H357.565V58.2017ZM357.835 67.5H354.638V50.2809H367.208V52.9621H357.835V67.5ZM380.226 67.746C378.882 67.746 377.643 67.5246 376.512 67.0818C375.38 66.639 374.396 66.0241 373.56 65.2369C372.724 64.4334 372.076 63.4986 371.617 62.4327C371.158 61.3503 370.928 60.1696 370.928 58.8904C370.928 57.6113 371.158 56.4388 371.617 55.3728C372.076 54.2905 372.724 53.3557 373.56 52.5686C374.396 51.765 375.38 51.1418 376.512 50.6991C377.643 50.2563 378.873 50.0349 380.202 50.0349C381.546 50.0349 382.776 50.2563 383.891 50.6991C385.023 51.1418 386.007 51.765 386.843 52.5686C387.68 53.3557 388.327 54.2905 388.787 55.3728C389.246 56.4388 389.475 57.6113 389.475 58.8904C389.475 60.1696 389.246 61.3503 388.787 62.4327C388.327 63.515 387.68 64.4498 386.843 65.2369C386.007 66.0241 385.023 66.639 383.891 67.0818C382.776 67.5246 381.555 67.746 380.226 67.746ZM380.202 64.9417C381.071 64.9417 381.874 64.7941 382.612 64.499C383.35 64.2038 383.99 63.7856 384.531 63.2444C385.072 62.6868 385.49 62.0473 385.786 61.3257C386.097 60.5878 386.253 59.776 386.253 58.8904C386.253 58.0049 386.097 57.2013 385.786 56.4798C385.49 55.7418 385.072 55.1022 384.531 54.5611C383.99 54.0035 383.35 53.5771 382.612 53.2819C381.874 52.9867 381.071 52.8391 380.202 52.8391C379.333 52.8391 378.529 52.9867 377.791 53.2819C377.069 53.5771 376.43 54.0035 375.872 54.5611C375.331 55.1022 374.905 55.7418 374.593 56.4798C374.298 57.2013 374.15 58.0049 374.15 58.8904C374.15 59.7596 374.298 60.5632 374.593 61.3011C374.905 62.0391 375.331 62.6868 375.872 63.2444C376.413 63.7856 377.053 64.2038 377.791 64.499C378.529 64.7941 379.333 64.9417 380.202 64.9417ZM394.915 67.5V50.2809H401.999C403.524 50.2809 404.828 50.5269 405.911 51.0188C407.009 51.5108 407.854 52.216 408.444 53.1343C409.035 54.0527 409.33 55.1432 409.33 56.406C409.33 57.6687 409.035 58.7592 408.444 59.6776C407.854 60.5796 407.009 61.2765 405.911 61.7685C404.828 62.2441 403.524 62.4819 401.999 62.4819H396.686L398.113 61.0305V67.5H394.915ZM406.181 67.5L401.827 61.2519H405.246L409.625 67.5H406.181ZM398.113 61.3749L396.686 59.8498H401.852C403.262 59.8498 404.32 59.5464 405.025 58.9396C405.747 58.3329 406.107 57.4883 406.107 56.406C406.107 55.3072 405.747 54.4627 405.025 53.8723C404.32 53.2819 403.262 52.9867 401.852 52.9867H396.686L398.113 51.4124V61.3749ZM414.957 67.5V50.2809H417.59L425.117 62.8508H423.739L431.143 50.2809H433.775L433.8 67.5H430.774L430.75 55.0284H431.389L425.092 65.5321H423.665L417.27 55.0284H418.008V67.5H414.957Z" fill="#D9D9D9"/>
<defs>
<filter id="filter0_f_1_564" x="0" y="-10" width="496" height="139" filterUnits="userSpaceOnUse" color-interpolation-filters="sRGB">
<feFlood flood-opacity="0" result="BackgroundImageFix"/>
<feBlend mode="normal" in="SourceGraphic" in2="BackgroundImageFix" result="shape"/>
<feGaussianBlur stdDeviation="22.5" result="effect1_foregroundBlur_1_564"/>
</filter>
</defs>
</svg>
